<?xml version="1.0" encoding="UTF-8" standalone="no"?>
<!DOCTYPE svg PUBLIC "-//W3C//DTD SVG 1.1//EN"
 "http://www.w3.org/Graphics/SVG/1.1/DTD/svg11.dtd">
<!-- Generated by graphviz version 2.43.0 (0)
 -->
<!-- Title: %3 Pages: 1 -->
<svg width="543pt" height="165pt"
 viewBox="0.00 0.00 543.00 164.74" xmlns="http://www.w3.org/2000/svg" xmlns:xlink="http://www.w3.org/1999/xlink">
<g id="graph0" class="graph" transform="scale(1 1) rotate(0) translate(36 128.74)">
<title>%3</title>
<polygon fill="dimgray" stroke="transparent" points="-36,36 -36,-128.74 507,-128.74 507,36 -36,36"/>
<text text-anchor="middle" x="235.5" y="-77.54" font-family="Helvetica,sans-Serif" font-size="14.00">Sweep&#39;s Plan &amp; Progress</text>
<!-- start -->
<g id="node1" class="node">
<title>start</title>
</g>
<!-- 9dd70e1c&#45;26f7&#45;49bb&#45;9e61&#45;f6be76d02d78 -->
<g id="node3" class="node">
<title>9dd70e1c&#45;26f7&#45;49bb&#45;9e61&#45;f6be76d02d78</title>
<ellipse fill="yellow" stroke="black" cx="232.5" cy="-26.87" rx="179.71" ry="26.74"/>
<text text-anchor="middle" x="232.5" y="-30.67" font-family="Helvetica,sans-Serif" font-size="14.00">⋯ Create</text>
<text text-anchor="middle" x="232.5" y="-15.67" font-family="Helvetica,sans-Serif" font-size="14.00">.github/workflows/code_butler.yml</text>
</g>
<!-- start&#45;&gt;9dd70e1c&#45;26f7&#45;49bb&#45;9e61&#45;f6be76d02d78 -->
<g id="edge1" class="edge">
<title>start&#45;&gt;9dd70e1c&#45;26f7&#45;49bb&#45;9e61&#45;f6be76d02d78</title>
<path fill="none" stroke="black" d="M1.17,-26.87C4.55,-26.87 20.52,-26.87 42.62,-26.87"/>
<polygon fill="black" stroke="black" points="42.82,-30.37 52.82,-26.87 42.82,-23.37 42.82,-30.37"/>
<text text-anchor="middle" x="26.95" y="-33.67" font-family="Helvetica,sans-Serif" font-size="14.00">Start</text>
</g>
<!-- end -->
<g id="node2" class="node">
<title>end</title>
</g>
<!-- 9dd70e1c&#45;26f7&#45;49bb&#45;9e61&#45;f6be76d02d78&#45;&gt;end -->
<g id="edge2" class="edge">
<title>9dd70e1c&#45;26f7&#45;49bb&#45;9e61&#45;f6be76d02d78&#45;&gt;end</title>
<path fill="none" stroke="black" d="M412.28,-26.87C432.44,-26.87 449.42,-26.87 459.75,-26.87"/>
<polygon fill="black" stroke="black" points="459.86,-30.37 469.86,-26.87 459.86,-23.37 459.86,-30.37"/>
<text text-anchor="middle" x="441.05" y="-33.67" font-family="Helvetica,sans-Serif" font-size="14.00">Finish</text>
</g>
</g>
</svg>
